<svg width="56" height="56" viewBox="0 0 56 56" fill="none" xmlns="http://www.w3.org/2000/svg">
<g id="Group 12">
<g id="Group">
<g id="Group_2">
<path id="Vector" d="M24.0053 26.3588H2.19444C0.979597 26.3588 0.000976562 25.3825 0.000976562 24.1706V2.40107C0.000976562 1.18915 0.979597 0.212891 2.19444 0.212891H24.0053C25.2201 0.212891 26.1988 1.18915 26.1988 2.40107V24.1594C26.1988 25.3825 25.2201 26.3588 24.0053 26.3588Z" fill="#99AFFF"/>
</g>
</g>
<g id="Group_3">
<path id="Vector_2" d="M24.0053 55.7372H2.19444C0.979597 55.7372 0.000976562 54.761 0.000976562 53.5491V31.7907C0.000976562 30.5788 0.979597 29.6025 2.19444 29.6025H24.0053C25.2201 29.6025 26.1988 30.5788 26.1988 31.7907V53.5491C26.1988 54.761 25.2201 55.7372 24.0053 55.7372Z" fill="#99AFFF"/>
</g>
<g id="Group_4">
<path id="Vector_3" d="M53.4653 26.1347H31.6432C30.4283 26.1347 29.4497 25.1584 29.4497 23.9465V2.18818C29.4497 0.976264 30.4283 0 31.6432 0H53.454C54.6689 0 55.6475 0.976264 55.6475 2.18818V23.9465C55.6587 25.1584 54.6689 26.1347 53.4653 26.1347Z" fill="#99AFFF"/>
</g>
<g id="Group_5">
<g id="Group_6">
<path id="Vector_4" d="M53.4653 55.7372H31.6432C30.4283 55.7372 29.4497 54.761 29.4497 53.5491V31.7907C29.4497 30.5788 30.4283 29.6025 31.6432 29.6025H53.454C54.6689 29.6025 55.6475 30.5788 55.6475 31.7907V53.5491C55.6587 54.761 54.6689 55.7372 53.4653 55.7372Z" fill="#99AFFF"/>
</g>
</g>
<path id="Vector_5" d="M17.2225 21.1861L16.1877 17.8309H10.1922L9.03361 21.1861H5.43408L11.2383 4.9375H15.1865L20.9233 21.1861H17.2225ZM13.1843 8.58446H13.1618L11.0696 15.0368H15.209L13.1843 8.58446Z" fill="white"/>
<path id="Vector_6" d="M35.8501 21.1969V4.94824H43.8703C47.0536 4.94824 48.7746 6.66512 48.7746 9.3807C48.7746 10.7722 47.9198 11.9504 46.7837 12.4105C48.156 12.9267 49.2583 14.0264 49.2583 16.3492C49.2583 19.3117 47.2673 21.1969 43.1729 21.1969H35.8501ZM39.1347 7.76482V11.2883H43.4316C44.7814 11.2883 45.4901 10.6712 45.4901 9.52658C45.4901 8.281 44.8264 7.76482 43.2291 7.76482H39.1347ZM43.4541 18.4252C45.0289 18.4252 45.9513 17.4265 45.9513 16.1023C45.9513 14.6884 45.0176 14.0488 43.4991 14.0488H39.1347V18.4252H43.4541Z" fill="white"/>
<path id="Vector_7" d="M20.372 45.1995C19.6858 48.8913 17.1324 51.3376 13.3529 51.3376C9.08971 51.3376 5.82764 48.4312 5.82764 42.843C5.82764 37.3332 8.741 33.9893 13.4091 33.9893C17.4811 33.9893 20.057 36.5814 20.372 39.8581H16.9637C16.5025 38.0177 15.0514 36.9181 13.4316 36.9181C10.6083 36.9181 9.29218 39.095 9.29218 42.641C9.29218 46.2318 10.6195 48.3639 13.2629 48.3639C15.2764 48.3639 16.5025 47.2193 16.9637 45.1882H20.372V45.1995Z" fill="white"/>
<path id="Vector_8" d="M35.625 50.7882V34.5508H41.9242C46.3336 34.5508 49.4832 37.5581 49.4832 42.5068C49.4832 47.4442 46.6598 50.7994 42.4416 50.7994H35.625V50.7882ZM41.7554 48.0277C44.725 48.0277 45.9961 46.165 45.9961 42.4955C45.9961 38.8261 44.725 37.3561 41.463 37.3561H38.9321V48.0277H41.7554Z" fill="white"/>
</g>
</svg>
