<svg width="86" height="42" viewBox="0 0 86 42" fill="none" xmlns="http://www.w3.org/2000/svg">
<g id="Group">
<path id="Vector" d="M30.7904 0C10.1887 0 11.5766 21.1862 11.5766 21.1862C11.5766 21.1862 0.000976562 21.4063 0.000976562 31.5441C0.000976562 41.6818 11.5766 41.2315 11.5766 41.2315C11.5766 41.2315 26.3801 41.2315 42.9005 41.2315V3.16241C40.166 1.34102 36.3006 0 30.7904 0Z" fill="#99AFFF"/>
<path id="Vector_2" d="M71.5312 20.6154C61.8061 6.98503 49.3053 13.2898 49.3053 13.2898C49.3053 13.2898 48.7604 7.09511 42.8904 3.16211V41.2312C52.7492 41.2312 63.2145 41.2312 71.5209 41.2312C93.7469 41.2412 87.0338 19.1543 71.5312 20.6154Z" fill="white"/>
</g>
</svg>
