<svg width="44" height="55" viewBox="0 0 44 55" fill="none" xmlns="http://www.w3.org/2000/svg">
<path d="M1.25271 0C0.923052 0 0.60018 0.133 0.36748 0.364305C0.134779 0.59561 0.000976562 0.916545 0.000976562 1.24423V38.4351C0.000976562 38.7628 0.134779 39.0828 0.36748 39.3151C0.60018 39.5473 0.923052 39.6794 1.25174 39.6794H14.1211V16.8014C14.1211 16.5826 14.2112 16.3696 14.3654 16.2154C14.5205 16.0603 14.7358 15.9726 14.9559 15.9726H30.51V1.24423C30.51 0.916545 30.3771 0.596573 30.1435 0.364305C29.9117 0.133 29.5898 0 29.2582 0H1.25271ZM13.4453 31.5307H3.6059V29.0432H13.4453V31.5307ZM13.4453 25.9003H3.43525V23.4129H13.4453V25.9003ZM13.4453 20.271H3.6059V17.7825H13.4453V20.271ZM26.906 14.6406H3.6059V12.1531H26.906V14.6406ZM26.906 9.01125H5.97265V6.52279H26.906V9.01125Z" fill="#99AFFF"/>
<path d="M26.906 6.52246H5.97266V9.00738H26.906V6.52246Z" fill="white"/>
<path d="M26.9061 12.1533H3.60596V14.6382H26.9061V12.1533Z" fill="white"/>
<path d="M13.4453 17.7832H3.60596V20.2681H13.4453V17.7832Z" fill="white"/>
<path d="M13.4453 23.4141H3.4353V25.898H13.4453V23.4141Z" fill="white"/>
<path d="M13.4453 29.043H3.60596V31.5269H13.4453V29.043Z" fill="white"/>
<path d="M15.7917 53.1631H42.1286V17.6309H15.7917V53.1631ZM19.6759 22.0796H40.6102V24.5671H19.6759V22.0796ZM17.3101 27.71H40.6102V30.1975H17.3101V27.71ZM17.3101 33.3413H40.6102V35.8288H17.3101V33.3413ZM17.3101 38.9707H40.6102V41.4591H17.3101V38.9707ZM17.3101 44.601H34.8189V47.0885H17.3101V44.601Z" fill="#99AFFF"/>
<path d="M30.511 15.9717H14.9569C14.7368 15.9717 14.5215 16.0603 14.3664 16.2145C14.2113 16.3688 14.1221 16.5827 14.1221 16.8005V39.6785V53.9924C14.1221 54.2102 14.2122 54.4241 14.3664 54.5784C14.5215 54.7335 14.7368 54.8212 14.9569 54.8212H42.9624C43.1825 54.8212 43.3977 54.7335 43.5538 54.5784C43.709 54.4241 43.7972 54.2102 43.7972 53.9924V16.8005C43.7972 16.5817 43.709 16.3688 43.5538 16.2145C43.3977 16.0594 43.1825 15.9717 42.9624 15.9717H30.511ZM42.1276 53.1635H15.7917V17.6313H42.1285V53.1635H42.1276Z" fill="white"/>
<path d="M40.6101 22.0801H19.6758V24.564H40.6101V22.0801Z" fill="white"/>
<path d="M40.6102 27.71H17.3101V30.1939H40.6102V27.71Z" fill="white"/>
<path d="M40.6102 33.3418H17.3101V35.8258H40.6102V33.3418Z" fill="white"/>
<path d="M40.6102 38.9707H17.3101V41.4556H40.6102V38.9707Z" fill="white"/>
<path d="M34.8188 44.6016H17.3101V47.0855H34.8188V44.6016Z" fill="white"/>
</svg>
