<svg width="68" height="73" viewBox="0 0 68 73" fill="none" xmlns="http://www.w3.org/2000/svg">
<g id="Group">
<path id="Vector" d="M7.82137 6.90607C1.62047 11.9677 -4.1755 30.0364 4.12147 41.3132C12.4184 52.5901 19.6197 52.2106 20.0247 54.4038C20.4216 56.6045 18.0239 72.1841 18.0239 72.1841H30.378V0.0155328C22.0016 -0.20454 13.9349 1.90512 7.82137 6.90607Z" fill="white"/>
<path id="Vector_2" d="M61.4222 30.894C60.7235 27.168 62.4226 14.6466 52.6251 7.57397C42.8195 0.501301 30.7195 0.0232137 30.7195 0.0232137C30.6004 0.015625 30.4892 0.0232137 30.3701 0.015625V72.1842H42.2161C42.2161 72.1842 42.7163 60.8087 46.4162 61.4765C61.5175 64.7245 60.9141 59.6628 60.7156 57.8415C60.5171 56.0278 60.6124 53.7284 61.4143 52.7723C62.0177 51.9147 61.5175 50.4805 61.5175 50.4805C61.5175 50.4805 62.4147 50.101 62.1209 48.3784C62.4226 45.3202 67.4246 46.7544 67.5199 44.6523C67.6231 42.5503 62.1209 34.6201 61.4222 30.894Z" fill="#99AFFF"/>
</g>
</svg>
